<svg xmlns="http://www.w3.org/2000/svg" width="1200" height="630" viewBox="0 0 1200 630" fill="none">
  <defs>
    <linearGradient id="bg" x1="0" y1="0" x2="1" y2="1">
      <stop offset="0%" stop-color="#0E1117"/>
      <stop offset="100%" stop-color="#1F2635"/>
    </linearGradient>
    <linearGradient id="accent" x1="0" y1="0" x2="1" y2="0">
      <stop offset="0%" stop-color="#6F2EE5"/>
      <stop offset="100%" stop-color="#A78BFA"/>
    </linearGradient>
    <linearGradient id="wave" x1="0" y1="0" x2="1" y2="0">
      <stop offset="0%" stop-color="rgba(111,46,229,0.8)"/>
      <stop offset="100%" stop-color="rgba(167,139,250,0.5)"/>
    </linearGradient>
  </defs>
  <rect width="1200" height="630" fill="url(#bg)"/>
  <circle cx="1040" cy="120" r="140" fill="rgba(167,139,250,0.08)"/>
  <circle cx="200" cy="80" r="120" fill="rgba(111,46,229,0.07)"/>
  <path d="M80 440c60-80 120-80 180 0s120 80 180 0 120-80 180 0 120 80 180 0 120-80 180 0" stroke="url(#wave)" stroke-width="12" fill="none" stroke-linecap="round" opacity="0.55"/>
  <path d="M120 500c50-60 100-60 150 0s100 60 150 0 100-60 150 0 100 60 150 0 100-60 150 0" stroke="url(#wave)" stroke-width="8" fill="none" stroke-linecap="round" opacity="0.35"/>
  <rect x="80" y="96" width="100" height="100" rx="22" fill="url(#accent)" opacity="0.95"/>
  <text x="130" y="165" text-anchor="middle" fill="#F8FAFC" font-family="Inter, -apple-system, BlinkMacSystemFont, 'Segoe UI', sans-serif" font-size="26" font-weight="800" letter-spacing="4">EV</text>
  <text x="220" y="190" fill="#E5E7EB" font-family="Inter, -apple-system, BlinkMacSystemFont, 'Segoe UI', sans-serif" font-size="22" font-weight="700">EchoVault</text>
  <text x="80" y="260" fill="#F8FAFC" font-family="Inter, -apple-system, BlinkMacSystemFont, 'Segoe UI', sans-serif" font-size="52" font-weight="800">Preserve their story. Keep their voice close.</text>
  <text x="80" y="320" fill="#9CA3AF" font-family="Inter, -apple-system, BlinkMacSystemFont, 'Segoe UI', sans-serif" font-size="24" font-weight="500">
    Guided interviews, a respectful Echo, and private hosting—no subscriptions.
  </text>
  <rect x="80" y="360" width="320" height="70" rx="16" fill="url(#accent)" opacity="0.92"/>
  <text x="240" y="405" text-anchor="middle" fill="#FFFFFF" font-family="Inter, -apple-system, BlinkMacSystemFont, 'Segoe UI', sans-serif" font-size="22" font-weight="700">Get Started</text>
  <text x="80" y="470" fill="#6B7280" font-family="Inter, -apple-system, BlinkMacSystemFont, 'Segoe UI', sans-serif" font-size="18" font-weight="600">echovault-ai.com</text>
</svg>
