<svg xmlns="http://www.w3.org/2000/svg" width="1080" height="1920" viewBox="0 0 1080 1920" fill="none">
  <defs>
    <linearGradient id="storyBg" x1="0" y1="0" x2="1" y2="1">
      <stop offset="0%" stop-color="#0E1117"/>
      <stop offset="100%" stop-color="#1F2635"/>
    </linearGradient>
    <linearGradient id="storyAccent" x1="0" y1="0" x2="1" y2="0">
      <stop offset="0%" stop-color="#6F2EE5"/>
      <stop offset="100%" stop-color="#A78BFA"/>
    </linearGradient>
  </defs>
  <rect width="1080" height="1920" fill="url(#storyBg)"/>
  <circle cx="960" cy="220" r="180" fill="rgba(111,46,229,0.1)"/>
  <circle cx="200" cy="1750" r="240" fill="rgba(167,139,250,0.08)"/>
  <rect x="80" y="180" width="120" height="120" rx="28" fill="url(#storyAccent)" opacity="0.95"/>
  <text x="140" y="250" text-anchor="middle" fill="#F8FAFC" font-family="Inter, -apple-system, BlinkMacSystemFont, 'Segoe UI', sans-serif" font-size="30" font-weight="800" letter-spacing="4">EV</text>
  <text x="240" y="260" fill="#E5E7EB" font-family="Inter, -apple-system, BlinkMacSystemFont, 'Segoe UI', sans-serif" font-size="26" font-weight="700">EchoVault</text>

  <text x="80" y="420" fill="#F8FAFC" font-family="Inter, -apple-system, BlinkMacSystemFont, 'Segoe UI', sans-serif" font-size="56" font-weight="800" line-height="1.2">
    Preserve their story.
  </text>
  <text x="80" y="500" fill="#9CA3AF" font-family="Inter, -apple-system, BlinkMacSystemFont, 'Segoe UI', sans-serif" font-size="30" font-weight="500">
    Guided interviews, respectful Echoes, and private hosting.
  </text>

  <rect x="80" y="620" width="400" height="90" rx="22" fill="url(#storyAccent)" opacity="0.94"/>
  <text x="280" y="680" text-anchor="middle" fill="#FFFFFF" font-family="Inter, -apple-system, BlinkMacSystemFont, 'Segoe UI', sans-serif" font-size="28" font-weight="700">Get Started</text>

  <text x="80" y="780" fill="#6B7280" font-family="Inter, -apple-system, BlinkMacSystemFont, 'Segoe UI', sans-serif" font-size="22" font-weight="600">echovault-ai.com</text>

  <path d="M80 1480c80-120 160-120 240 0s160 120 240 0 160-120 240 0" stroke="url(#storyAccent)" stroke-width="14" fill="none" stroke-linecap="round" opacity="0.45"/>
  <path d="M130 1560c70-90 140-90 210 0s140 90 210 0 140-90 210 0" stroke="url(#storyAccent)" stroke-width="10" fill="none" stroke-linecap="round" opacity="0.28"/>
</svg>
