<svg xmlns="http://www.w3.org/2000/svg" width="64" height="64" viewBox="0 0 64 64" fill="none" role="img" aria-label="EchoVault">
  <defs>
    <linearGradient id="evg" x1="10" y1="6" x2="56" y2="62" gradientUnits="userSpaceOnUse">
      <stop stop-color="#6f2ee5"/>
      <stop offset="1" stop-color="#a78bfa"/>
    </linearGradient>
    <filter id="evShadow" x="-20%" y="-20%" width="140%" height="140%">
      <feDropShadow dx="0" dy="10" stdDeviation="10" flood-color="#6f2ee5" flood-opacity="0.25"/>
    </filter>
  </defs>

  <rect x="4" y="4" width="56" height="56" rx="16" fill="url(#evg)" filter="url(#evShadow)"/>

  <path
    d="M20 28.5L32 18l12 10.5v15.5a5 5 0 0 1-5 5H25a5 5 0 0 1-5-5V28.5Z"
    stroke="white"
    stroke-width="2.4"
    stroke-linejoin="round"
    opacity="0.92"
  />
  <path
    d="M26 35.5c2.5-3 5-3 7.5 0s5 3 7.5 0"
    stroke="white"
    stroke-width="2.4"
    stroke-linecap="round"
    opacity="0.95"
  />
  <path
    d="M24.5 40.5c3.5 4 7 4 10.5 0s7-4 10.5 0"
    stroke="white"
    stroke-width="2.1"
    stroke-linecap="round"
    opacity="0.7"
  />
</svg>
